<svg width="87" height="44" viewBox="0 0 87 44" fill="none" xmlns="http://www.w3.org/2000/svg">
<g style="mix-blend-mode:multiply">
<rect width="87" height="44" rx="22" fill="#F2F4F7"/>
<g clip-path="url(#clip0_12068_509)">
<path d="M33.625 14.5C32.7962 14.5 32.0013 14.8292 31.4153 15.4153C30.8292 16.0013 30.5 16.7962 30.5 17.625C30.5 17.7908 30.4342 17.9497 30.3169 18.0669C30.1997 18.1842 30.0408 18.25 29.875 18.25C29.7092 18.25 29.5503 18.1842 29.4331 18.0669C29.3158 17.9497 29.25 17.7908 29.25 17.625C29.25 16.7597 29.5066 15.9138 29.9873 15.1944C30.4681 14.4749 31.1513 13.9142 31.9508 13.583C32.7502 13.2519 33.6299 13.1653 34.4785 13.3341C35.3272 13.5029 36.1067 13.9196 36.7186 14.5314C37.3304 15.1433 37.7471 15.9228 37.9159 16.7715C38.0847 17.6201 37.9981 18.4998 37.667 19.2992C37.3358 20.0987 36.7751 20.782 36.0556 21.2627C35.3362 21.7434 34.4903 22 33.625 22H18.625C18.4592 22 18.3003 21.9342 18.1831 21.8169C18.0658 21.6997 18 21.5408 18 21.375C18 21.2092 18.0658 21.0503 18.1831 20.9331C18.3003 20.8158 18.4592 20.75 18.625 20.75H33.625C34.4538 20.75 35.2487 20.4208 35.8347 19.8347C36.4208 19.2487 36.75 18.4538 36.75 17.625C36.75 16.7962 36.4208 16.0013 35.8347 15.4153C35.2487 14.8292 34.4538 14.5 33.625 14.5ZM24.875 15.75C24.5435 15.75 24.2255 15.8817 23.9911 16.1161C23.7567 16.3505 23.625 16.6685 23.625 17C23.625 17.1658 23.5592 17.3247 23.4419 17.4419C23.3247 17.5592 23.1658 17.625 23 17.625C22.8342 17.625 22.6753 17.5592 22.5581 17.4419C22.4408 17.3247 22.375 17.1658 22.375 17C22.375 16.5055 22.5216 16.0222 22.7963 15.6111C23.071 15.2 23.4615 14.8795 23.9183 14.6903C24.3751 14.5011 24.8778 14.4516 25.3627 14.548C25.8477 14.6445 26.2931 14.8826 26.6428 15.2322C26.9924 15.5819 27.2305 16.0273 27.327 16.5123C27.4234 16.9972 27.3739 17.4999 27.1847 17.9567C26.9955 18.4135 26.675 18.804 26.2639 19.0787C25.8528 19.3534 25.3695 19.5 24.875 19.5H18.625C18.4592 19.5 18.3003 19.4342 18.1831 19.3169C18.0658 19.1997 18 19.0408 18 18.875C18 18.7092 18.0658 18.5503 18.1831 18.4331C18.3003 18.3158 18.4592 18.25 18.625 18.25H24.875C25.2065 18.25 25.5245 18.1183 25.7589 17.8839C25.9933 17.6495 26.125 17.3315 26.125 17C26.125 16.6685 25.9933 16.3505 25.7589 16.1161C25.5245 15.8817 25.2065 15.75 24.875 15.75ZM18 23.875C18 23.7092 18.0658 23.5503 18.1831 23.4331C18.3003 23.3159 18.4592 23.25 18.625 23.25H31.1775C31.9192 23.25 32.6442 23.4699 33.2609 23.882C33.8776 24.294 34.3582 24.8797 34.642 25.5649C34.9259 26.2502 35.0001 27.0042 34.8554 27.7316C34.7108 28.459 34.3536 29.1272 33.8292 29.6517C33.3047 30.1761 32.6365 30.5333 31.9091 30.6779C31.1817 30.8226 30.4277 30.7484 29.7424 30.4646C29.0572 30.1807 28.4715 29.7001 28.0595 29.0834C27.6474 28.4667 27.4275 27.7417 27.4275 27C27.4275 26.8342 27.4933 26.6753 27.6106 26.5581C27.7278 26.4409 27.8867 26.375 28.0525 26.375C28.2183 26.375 28.3772 26.4409 28.4944 26.5581C28.6117 26.6753 28.6775 26.8342 28.6775 27C28.6775 27.4945 28.8241 27.9778 29.0988 28.3889C29.3735 28.8001 29.764 29.1205 30.2208 29.3097C30.6776 29.4989 31.1803 29.5484 31.6652 29.452C32.1502 29.3555 32.5956 29.1174 32.9453 28.7678C33.2949 28.4181 33.533 27.9727 33.6295 27.4877C33.7259 27.0028 33.6764 26.5001 33.4872 26.0433C33.298 25.5865 32.9775 25.196 32.5664 24.9213C32.1553 24.6466 31.672 24.5 31.1775 24.5H18.625C18.4592 24.5 18.3003 24.4342 18.1831 24.3169C18.0658 24.1997 18 24.0408 18 23.875Z" fill="#101828"/>
</g>
<path d="M48.5504 28H46.6868L50.8743 16.3636H52.9027L57.0902 28H55.2266L51.9368 18.4773H51.8459L48.5504 28ZM48.8629 23.4432H54.9084V24.9205H48.8629V23.4432ZM67.8885 20.1477H66.1158C66.0476 19.7689 65.9207 19.4356 65.7351 19.1477C65.5495 18.8598 65.3222 18.6155 65.0533 18.4148C64.7843 18.214 64.4832 18.0625 64.1499 17.9602C63.8203 17.858 63.4699 17.8068 63.0987 17.8068C62.4283 17.8068 61.8279 17.9754 61.2976 18.3125C60.7711 18.6496 60.3544 19.1439 60.0476 19.7955C59.7446 20.447 59.593 21.2424 59.593 22.1818C59.593 23.1288 59.7446 23.928 60.0476 24.5795C60.3544 25.2311 60.773 25.7235 61.3033 26.0568C61.8336 26.3902 62.4302 26.5568 63.093 26.5568C63.4605 26.5568 63.8089 26.5076 64.1385 26.4091C64.4718 26.3068 64.773 26.1572 65.0419 25.9602C65.3108 25.7633 65.5381 25.5227 65.7237 25.2386C65.9131 24.9508 66.0438 24.6212 66.1158 24.25L67.8885 24.2557C67.7938 24.8277 67.6101 25.3542 67.3374 25.8352C67.0684 26.3125 66.7218 26.7254 66.2976 27.0739C65.8771 27.4186 65.3961 27.6856 64.8544 27.875C64.3127 28.0644 63.7218 28.1591 63.0817 28.1591C62.0741 28.1591 61.1764 27.9205 60.3885 27.4432C59.6006 26.9621 58.9794 26.2746 58.5249 25.3807C58.0741 24.4867 57.8487 23.4205 57.8487 22.1818C57.8487 20.9394 58.076 19.8731 58.5305 18.983C58.9851 18.089 59.6063 17.4034 60.3942 16.9261C61.1821 16.4451 62.0779 16.2045 63.0817 16.2045C63.6991 16.2045 64.2749 16.2936 64.8089 16.4716C65.3468 16.6458 65.8298 16.9034 66.2578 17.2443C66.6858 17.5814 67.04 17.9943 67.3203 18.483C67.6006 18.9678 67.79 19.5227 67.8885 20.1477Z" fill="#101828"/>
</g>
<defs>
<clipPath id="clip0_12068_509">
<rect width="20" height="20" fill="white" transform="translate(18 12)"/>
</clipPath>
</defs>
</svg>
