<svg width="143" height="44" viewBox="0 0 143 44" fill="none" xmlns="http://www.w3.org/2000/svg">
<g style="mix-blend-mode:multiply">
<rect width="143" height="44" rx="22" fill="#F2F4F7"/>
<path fill-rule="evenodd" clip-rule="evenodd" d="M25.5 16.375C25.5 15.8777 25.6975 15.4008 26.0492 15.0492C26.4008 14.6975 26.8777 14.5 27.375 14.5H28.625C29.1223 14.5 29.5992 14.6975 29.9508 15.0492C30.3025 15.4008 30.5 15.8777 30.5 16.375V17.625C30.5 18.1223 30.3025 18.5992 29.9508 18.9508C29.5992 19.3025 29.1223 19.5 28.625 19.5V20.75H35.5C35.6658 20.75 35.8247 20.8158 35.9419 20.9331C36.0592 21.0503 36.125 21.2092 36.125 21.375V22.625C36.125 22.7908 36.0592 22.9497 35.9419 23.0669C35.8247 23.1842 35.6658 23.25 35.5 23.25C35.3342 23.25 35.1753 23.1842 35.0581 23.0669C34.9408 22.9497 34.875 22.7908 34.875 22.625V22H28.625V22.625C28.625 22.7908 28.5592 22.9497 28.4419 23.0669C28.3247 23.1842 28.1658 23.25 28 23.25C27.8342 23.25 27.6753 23.1842 27.5581 23.0669C27.4408 22.9497 27.375 22.7908 27.375 22.625V22H21.125V22.625C21.125 22.7908 21.0592 22.9497 20.9419 23.0669C20.8247 23.1842 20.6658 23.25 20.5 23.25C20.3342 23.25 20.1753 23.1842 20.0581 23.0669C19.9408 22.9497 19.875 22.7908 19.875 22.625V21.375C19.875 21.2092 19.9408 21.0503 20.0581 20.9331C20.1753 20.8158 20.3342 20.75 20.5 20.75H27.375V19.5C26.8777 19.5 26.4008 19.3025 26.0492 18.9508C25.6975 18.5992 25.5 18.1223 25.5 17.625V16.375ZM28.625 18.25C28.7908 18.25 28.9497 18.1842 29.0669 18.0669C29.1842 17.9497 29.25 17.7908 29.25 17.625V16.375C29.25 16.2092 29.1842 16.0503 29.0669 15.9331C28.9497 15.8158 28.7908 15.75 28.625 15.75H27.375C27.2092 15.75 27.0503 15.8158 26.9331 15.9331C26.8158 16.0503 26.75 16.2092 26.75 16.375V17.625C26.75 17.7908 26.8158 17.9497 26.9331 18.0669C27.0503 18.1842 27.2092 18.25 27.375 18.25H28.625ZM18 26.375C18 25.8777 18.1975 25.4008 18.5492 25.0492C18.9008 24.6975 19.3777 24.5 19.875 24.5H21.125C21.6223 24.5 22.0992 24.6975 22.4508 25.0492C22.8025 25.4008 23 25.8777 23 26.375V27.625C23 28.1223 22.8025 28.5992 22.4508 28.9508C22.0992 29.3025 21.6223 29.5 21.125 29.5H19.875C19.3777 29.5 18.9008 29.3025 18.5492 28.9508C18.1975 28.5992 18 28.1223 18 27.625V26.375ZM19.875 25.75C19.7092 25.75 19.5503 25.8158 19.4331 25.9331C19.3158 26.0503 19.25 26.2092 19.25 26.375V27.625C19.25 27.7908 19.3158 27.9497 19.4331 28.0669C19.5503 28.1842 19.7092 28.25 19.875 28.25H21.125C21.2908 28.25 21.4497 28.1842 21.5669 28.0669C21.6842 27.9497 21.75 27.7908 21.75 27.625V26.375C21.75 26.2092 21.6842 26.0503 21.5669 25.9331C21.4497 25.8158 21.2908 25.75 21.125 25.75H19.875ZM25.5 26.375C25.5 25.8777 25.6975 25.4008 26.0492 25.0492C26.4008 24.6975 26.8777 24.5 27.375 24.5H28.625C29.1223 24.5 29.5992 24.6975 29.9508 25.0492C30.3025 25.4008 30.5 25.8777 30.5 26.375V27.625C30.5 28.1223 30.3025 28.5992 29.9508 28.9508C29.5992 29.3025 29.1223 29.5 28.625 29.5H27.375C26.8777 29.5 26.4008 29.3025 26.0492 28.9508C25.6975 28.5992 25.5 28.1223 25.5 27.625V26.375ZM27.375 25.75C27.2092 25.75 27.0503 25.8158 26.9331 25.9331C26.8158 26.0503 26.75 26.2092 26.75 26.375V27.625C26.75 27.7908 26.8158 27.9497 26.9331 28.0669C27.0503 28.1842 27.2092 28.25 27.375 28.25H28.625C28.7908 28.25 28.9497 28.1842 29.0669 28.0669C29.1842 27.9497 29.25 27.7908 29.25 27.625V26.375C29.25 26.2092 29.1842 26.0503 29.0669 25.9331C28.9497 25.8158 28.7908 25.75 28.625 25.75H27.375ZM33 26.375C33 25.8777 33.1975 25.4008 33.5492 25.0492C33.9008 24.6975 34.3777 24.5 34.875 24.5H36.125C36.6223 24.5 37.0992 24.6975 37.4508 25.0492C37.8025 25.4008 38 25.8777 38 26.375V27.625C38 28.1223 37.8025 28.5992 37.4508 28.9508C37.0992 29.3025 36.6223 29.5 36.125 29.5H34.875C34.3777 29.5 33.9008 29.3025 33.5492 28.9508C33.1975 28.5992 33 28.1223 33 27.625V26.375ZM34.875 25.75C34.7092 25.75 34.5503 25.8158 34.4331 25.9331C34.3158 26.0503 34.25 26.2092 34.25 26.375V27.625C34.25 27.7908 34.3158 27.9497 34.4331 28.0669C34.5503 28.1842 34.7092 28.25 34.875 28.25H36.125C36.2908 28.25 36.4497 28.1842 36.5669 28.0669C36.6842 27.9497 36.75 27.7908 36.75 27.625V26.375C36.75 26.2092 36.6842 26.0503 36.5669 25.9331C36.4497 25.8158 36.2908 25.75 36.125 25.75H34.875Z" fill="#101828"/>
<path d="M48.5192 28H46.6555L50.843 16.3636H52.8714L57.0589 28H55.1953L51.9055 18.4773H51.8146L48.5192 28ZM48.8317 23.4432H54.8771V24.9205H48.8317V23.4432ZM64.1314 24.3807V19.2727H65.8359V28H64.1655V26.4886H64.0746C63.8738 26.9545 63.5518 27.3428 63.1087 27.6534C62.6693 27.9602 62.1219 28.1136 61.4666 28.1136C60.906 28.1136 60.4098 27.9905 59.978 27.7443C59.55 27.4943 59.2128 27.125 58.9666 26.6364C58.7242 26.1477 58.603 25.5436 58.603 24.8239V19.2727H60.3018V24.6193C60.3018 25.214 60.4666 25.6875 60.7962 26.0398C61.1257 26.392 61.5537 26.5682 62.0803 26.5682C62.3984 26.5682 62.7147 26.4886 63.0291 26.3295C63.3473 26.1705 63.6106 25.9299 63.8189 25.608C64.031 25.286 64.1352 24.8769 64.1314 24.3807ZM72.1925 19.2727V20.6364H67.4254V19.2727H72.1925ZM68.7038 17.1818H70.4027V25.4375C70.4027 25.767 70.4519 26.0152 70.5504 26.1818C70.6489 26.3447 70.7758 26.4564 70.9311 26.517C71.0902 26.5739 71.2625 26.6023 71.4482 26.6023C71.5845 26.6023 71.7038 26.5928 71.8061 26.5739C71.9084 26.5549 71.9879 26.5398 72.0447 26.5284L72.3516 27.9318C72.2531 27.9697 72.1129 28.0076 71.9311 28.0455C71.7493 28.0871 71.522 28.1098 71.2493 28.1136C70.8023 28.1212 70.3857 28.0417 69.9993 27.875C69.6129 27.7083 69.3004 27.4508 69.0618 27.1023C68.8232 26.7538 68.7038 26.3163 68.7038 25.7898V17.1818ZM77.6541 28.1761C76.8359 28.1761 76.1219 27.9886 75.5121 27.6136C74.9022 27.2386 74.4287 26.714 74.0916 26.0398C73.7545 25.3655 73.5859 24.5777 73.5859 23.6761C73.5859 22.7708 73.7545 21.9792 74.0916 21.3011C74.4287 20.6231 74.9022 20.0966 75.5121 19.7216C76.1219 19.3466 76.8359 19.1591 77.6541 19.1591C78.4723 19.1591 79.1863 19.3466 79.7962 19.7216C80.406 20.0966 80.8795 20.6231 81.2166 21.3011C81.5537 21.9792 81.7223 22.7708 81.7223 23.6761C81.7223 24.5777 81.5537 25.3655 81.2166 26.0398C80.8795 26.714 80.406 27.2386 79.7962 27.6136C79.1863 27.9886 78.4723 28.1761 77.6541 28.1761ZM77.6598 26.75C78.1901 26.75 78.6295 26.6098 78.978 26.3295C79.3265 26.0492 79.584 25.6761 79.7507 25.2102C79.9212 24.7443 80.0064 24.2311 80.0064 23.6705C80.0064 23.1136 79.9212 22.6023 79.7507 22.1364C79.584 21.6667 79.3265 21.2898 78.978 21.0057C78.6295 20.7216 78.1901 20.5795 77.6598 20.5795C77.1257 20.5795 76.6825 20.7216 76.3303 21.0057C75.9818 21.2898 75.7223 21.6667 75.5518 22.1364C75.3852 22.6023 75.3018 23.1136 75.3018 23.6705C75.3018 24.2311 75.3852 24.7443 75.5518 25.2102C75.7223 25.6761 75.9818 26.0492 76.3303 26.3295C76.6825 26.6098 77.1257 26.75 77.6598 26.75ZM83.6186 28V19.2727H85.2493V20.6932H85.3572C85.5391 20.2121 85.8364 19.8371 86.2493 19.5682C86.6622 19.2955 87.1565 19.1591 87.7322 19.1591C88.3156 19.1591 88.8042 19.2955 89.1982 19.5682C89.5959 19.8409 89.8894 20.2159 90.0788 20.6932H90.1697C90.3781 20.2273 90.7095 19.8561 91.1641 19.5795C91.6186 19.2992 92.1603 19.1591 92.7891 19.1591C93.5807 19.1591 94.2266 19.4072 94.7266 19.9034C95.2304 20.3996 95.4822 21.1477 95.4822 22.1477V28H93.7834V22.3068C93.7834 21.7159 93.6224 21.2879 93.3004 21.0227C92.9785 20.7576 92.594 20.625 92.147 20.625C91.594 20.625 91.1641 20.7955 90.8572 21.1364C90.5504 21.4735 90.397 21.9072 90.397 22.4375V28H88.7038V22.1989C88.7038 21.7254 88.5561 21.3447 88.2607 21.0568C87.9652 20.7689 87.5807 20.625 87.1072 20.625C86.7853 20.625 86.4879 20.7102 86.2152 20.8807C85.9463 21.0473 85.7285 21.2803 85.5618 21.5795C85.3989 21.8788 85.3175 22.2254 85.3175 22.6193V28H83.6186ZM100.299 28.1932C99.746 28.1932 99.246 28.0909 98.799 27.8864C98.352 27.678 97.9979 27.3769 97.7365 26.983C97.4789 26.589 97.3501 26.1061 97.3501 25.5341C97.3501 25.0417 97.4448 24.6364 97.6342 24.3182C97.8236 24 98.0793 23.7481 98.4013 23.5625C98.7232 23.3769 99.0831 23.2367 99.4808 23.142C99.8786 23.0473 100.284 22.9754 100.697 22.9261C101.219 22.8655 101.644 22.8163 101.969 22.7784C102.295 22.7367 102.532 22.6705 102.68 22.5795C102.827 22.4886 102.901 22.3409 102.901 22.1364V22.0966C102.901 21.6004 102.761 21.2159 102.481 20.9432C102.204 20.6705 101.791 20.5341 101.242 20.5341C100.67 20.5341 100.219 20.661 99.8899 20.9148C99.5642 21.1648 99.3388 21.4432 99.2138 21.75L97.6172 21.3864C97.8066 20.8561 98.0831 20.428 98.4467 20.1023C98.8142 19.7727 99.2365 19.5341 99.7138 19.3864C100.191 19.2348 100.693 19.1591 101.219 19.1591C101.568 19.1591 101.937 19.2008 102.327 19.2841C102.721 19.3636 103.089 19.5114 103.43 19.7273C103.774 19.9432 104.057 20.2519 104.276 20.6534C104.496 21.0511 104.606 21.5682 104.606 22.2045V28H102.947V26.8068H102.879C102.769 27.0265 102.604 27.2424 102.384 27.4545C102.165 27.6667 101.882 27.8428 101.538 27.983C101.193 28.1231 100.78 28.1932 100.299 28.1932ZM100.668 26.8295C101.138 26.8295 101.54 26.7367 101.873 26.5511C102.21 26.3655 102.466 26.1231 102.64 25.8239C102.818 25.5208 102.907 25.197 102.907 24.8523V23.7273C102.846 23.7879 102.729 23.8447 102.555 23.8977C102.384 23.947 102.189 23.9905 101.969 24.0284C101.75 24.0625 101.536 24.0947 101.327 24.125C101.119 24.1515 100.945 24.1742 100.805 24.1932C100.475 24.2348 100.174 24.3049 99.9013 24.4034C99.6323 24.5019 99.4164 24.6439 99.2536 24.8295C99.0945 25.0114 99.0149 25.2538 99.0149 25.5568C99.0149 25.9773 99.1702 26.2955 99.4808 26.5114C99.7914 26.7235 100.187 26.8295 100.668 26.8295ZM110.942 19.2727V20.6364H106.175V19.2727H110.942ZM107.454 17.1818H109.153V25.4375C109.153 25.767 109.202 26.0152 109.3 26.1818C109.399 26.3447 109.526 26.4564 109.681 26.517C109.84 26.5739 110.013 26.6023 110.198 26.6023C110.335 26.6023 110.454 26.5928 110.556 26.5739C110.658 26.5549 110.738 26.5398 110.795 26.5284L111.102 27.9318C111.003 27.9697 110.863 28.0076 110.681 28.0455C110.499 28.0871 110.272 28.1098 109.999 28.1136C109.552 28.1212 109.136 28.0417 108.749 27.875C108.363 27.7083 108.05 27.4508 107.812 27.1023C107.573 26.7538 107.454 26.3163 107.454 25.7898V17.1818ZM112.822 28V19.2727H114.521V28H112.822ZM113.68 17.9261C113.384 17.9261 113.13 17.8277 112.918 17.6307C112.71 17.4299 112.606 17.1913 112.606 16.9148C112.606 16.6345 112.71 16.3958 112.918 16.1989C113.13 15.9981 113.384 15.8977 113.68 15.8977C113.975 15.8977 114.227 15.9981 114.435 16.1989C114.647 16.3958 114.754 16.6345 114.754 16.9148C114.754 17.1913 114.647 17.4299 114.435 17.6307C114.227 17.8277 113.975 17.9261 113.68 17.9261ZM120.482 28.1761C119.638 28.1761 118.91 27.9848 118.3 27.6023C117.694 27.2159 117.228 26.6837 116.903 26.0057C116.577 25.3277 116.414 24.5511 116.414 23.6761C116.414 22.7898 116.581 22.0076 116.914 21.3295C117.247 20.6477 117.717 20.1155 118.323 19.733C118.929 19.3504 119.643 19.1591 120.465 19.1591C121.128 19.1591 121.719 19.2822 122.238 19.5284C122.757 19.7708 123.175 20.1117 123.494 20.5511C123.816 20.9905 124.007 21.5038 124.067 22.0909H122.414C122.323 21.6818 122.115 21.3295 121.789 21.0341C121.467 20.7386 121.035 20.5909 120.494 20.5909C120.02 20.5909 119.605 20.7159 119.249 20.9659C118.897 21.2121 118.622 21.5644 118.425 22.0227C118.228 22.4773 118.13 23.0152 118.13 23.6364C118.13 24.2727 118.227 24.822 118.42 25.2841C118.613 25.7462 118.886 26.1042 119.238 26.358C119.594 26.6117 120.013 26.7386 120.494 26.7386C120.816 26.7386 121.107 26.6799 121.369 26.5625C121.634 26.4413 121.855 26.2689 122.033 26.0455C122.215 25.822 122.342 25.553 122.414 25.2386H124.067C124.007 25.803 123.823 26.3068 123.516 26.75C123.21 27.1932 122.799 27.5417 122.283 27.7955C121.772 28.0492 121.172 28.1761 120.482 28.1761Z" fill="#101828"/>
</g>
</svg>
