<svg width="94" height="48" viewBox="0 0 94 48" fill="none" xmlns="http://www.w3.org/2000/svg">
<g style="mix-blend-mode:multiply">
<rect width="94" height="48" rx="24" fill="#F2F4F7"/>
<g clip-path="url(#clip0_19697_489)">
<path d="M23 29.8334H26.3333M33 29.8409V29.8334M19.6667 19C19.6667 16.2417 20.2417 15.6667 23 15.6667H33C35.7583 15.6667 36.3333 16.2417 36.3333 19V29C36.3333 31.7584 35.7583 32.3334 33 32.3334H23C20.2417 32.3334 19.6667 31.7584 19.6667 29V19Z" stroke="#101828" stroke-width="1.5" stroke-linecap="round" stroke-linejoin="round"/>
<path d="M28 25.6667C29.8409 25.6667 31.3333 24.1743 31.3333 22.3333C31.3333 20.4924 29.8409 19 28 19C26.159 19 24.6667 20.4924 24.6667 22.3333C24.6667 24.1743 26.159 25.6667 28 25.6667Z" stroke="#101828" stroke-width="1.5" stroke-linecap="round" stroke-linejoin="round"/>
<path d="M30.9166 22.3334H32.1666M28 25.25V26.5M25.0833 22.3334H23.8333M28 19.4167V18.1667" stroke="#101828" stroke-width="1.5" stroke-linecap="round" stroke-linejoin="round"/>
</g>
<path d="M55.3175 22.0398C55.2076 21.6951 55.0599 21.3864 54.8743 21.1136C54.6925 20.8371 54.4747 20.6023 54.2209 20.4091C53.9671 20.2121 53.6773 20.0625 53.3516 19.9602C53.0296 19.858 52.6754 19.8068 52.2891 19.8068C51.6338 19.8068 51.0429 19.9754 50.5163 20.3125C49.9898 20.6496 49.5732 21.1439 49.2663 21.7955C48.9633 22.4432 48.8118 23.2367 48.8118 24.1761C48.8118 25.1193 48.9652 25.9167 49.272 26.5682C49.5788 27.2197 49.9993 27.714 50.5334 28.0511C51.0675 28.3883 51.6754 28.5568 52.3572 28.5568C52.9898 28.5568 53.541 28.428 54.0107 28.1705C54.4841 27.9129 54.8497 27.5492 55.1072 27.0795C55.3686 26.6061 55.4993 26.0492 55.4993 25.4091L55.9538 25.4943H52.6243V24.0455H57.1982V25.3693C57.1982 26.3466 56.9898 27.1951 56.5732 27.9148C56.1603 28.6307 55.5883 29.1837 54.8572 29.5739C54.13 29.964 53.2966 30.1591 52.3572 30.1591C51.3042 30.1591 50.38 29.9167 49.5845 29.4318C48.7929 28.947 48.1754 28.2595 47.7322 27.3693C47.2891 26.4754 47.0675 25.4148 47.0675 24.1875C47.0675 23.2595 47.1963 22.4261 47.4538 21.6875C47.7114 20.9489 48.0732 20.322 48.5391 19.8068C49.0088 19.2879 49.5599 18.892 50.1925 18.6193C50.8288 18.3428 51.5239 18.2045 52.2777 18.2045C52.9065 18.2045 53.4917 18.2973 54.0334 18.483C54.5788 18.6686 55.0637 18.9318 55.4879 19.2727C55.916 19.6136 56.2701 20.0189 56.5504 20.4886C56.8307 20.9545 57.0201 21.4716 57.1186 22.0398H55.3175ZM61.8303 30.1932C61.2772 30.1932 60.7772 30.0909 60.3303 29.8864C59.8833 29.678 59.5291 29.3769 59.2678 28.983C59.0102 28.589 58.8814 28.1061 58.8814 27.5341C58.8814 27.0417 58.9761 26.6364 59.1655 26.3182C59.3549 26 59.6106 25.7481 59.9325 25.5625C60.2545 25.3769 60.6143 25.2367 61.0121 25.142C61.4098 25.0473 61.8151 24.9754 62.228 24.9261C62.7507 24.8655 63.175 24.8163 63.5007 24.7784C63.8265 24.7367 64.0632 24.6705 64.2109 24.5795C64.3587 24.4886 64.4325 24.3409 64.4325 24.1364V24.0966C64.4325 23.6004 64.2924 23.2159 64.0121 22.9432C63.7356 22.6705 63.3227 22.5341 62.7734 22.5341C62.2015 22.5341 61.7507 22.661 61.4212 22.9148C61.0954 23.1648 60.87 23.4432 60.745 23.75L59.1484 23.3864C59.3378 22.8561 59.6143 22.428 59.978 22.1023C60.3454 21.7727 60.7678 21.5341 61.245 21.3864C61.7223 21.2348 62.2242 21.1591 62.7507 21.1591C63.0992 21.1591 63.4685 21.2008 63.8587 21.2841C64.2526 21.3636 64.62 21.5114 64.9609 21.7273C65.3056 21.9432 65.5878 22.2519 65.8075 22.6534C66.0272 23.0511 66.1371 23.5682 66.1371 24.2045V30H64.478V28.8068H64.4098C64.3 29.0265 64.1352 29.2424 63.9155 29.4545C63.6958 29.6667 63.4136 29.8428 63.0689 29.983C62.7242 30.1231 62.3113 30.1932 61.8303 30.1932ZM62.1996 28.8295C62.6693 28.8295 63.0708 28.7367 63.4041 28.5511C63.7412 28.3655 63.9969 28.1231 64.1712 27.8239C64.3492 27.5208 64.4382 27.197 64.4382 26.8523V25.7273C64.3776 25.7879 64.2602 25.8447 64.0859 25.8977C63.9155 25.947 63.7204 25.9905 63.5007 26.0284C63.281 26.0625 63.067 26.0947 62.8587 26.125C62.6503 26.1515 62.4761 26.1742 62.3359 26.1932C62.0064 26.2348 61.7053 26.3049 61.4325 26.4034C61.1636 26.5019 60.9477 26.6439 60.7848 26.8295C60.6257 27.0114 60.5462 27.2538 60.5462 27.5568C60.5462 27.9773 60.7015 28.2955 61.0121 28.5114C61.3227 28.7235 61.7185 28.8295 62.1996 28.8295ZM74.9396 23.4034L73.3999 23.6761C73.3355 23.4792 73.2332 23.2917 73.093 23.1136C72.9567 22.9356 72.7711 22.7898 72.5362 22.6761C72.3014 22.5625 72.0078 22.5057 71.6555 22.5057C71.1745 22.5057 70.773 22.6136 70.451 22.8295C70.129 23.0417 69.968 23.3163 69.968 23.6534C69.968 23.9451 70.076 24.1799 70.2919 24.358C70.5078 24.536 70.8563 24.6818 71.3374 24.7955L72.7237 25.1136C73.5268 25.2992 74.1252 25.5852 74.5192 25.9716C74.9131 26.358 75.1101 26.8598 75.1101 27.4773C75.1101 28 74.9586 28.4659 74.6555 28.875C74.3563 29.2803 73.9377 29.5985 73.3999 29.8295C72.8658 30.0606 72.2464 30.1761 71.5419 30.1761C70.5646 30.1761 69.7673 29.9678 69.1499 29.5511C68.5324 29.1307 68.1536 28.5341 68.0135 27.7614L69.6555 27.5114C69.7578 27.9394 69.968 28.2633 70.2862 28.483C70.6044 28.6989 71.0192 28.8068 71.5305 28.8068C72.0874 28.8068 72.5324 28.6913 72.8658 28.4602C73.1991 28.2254 73.3658 27.9394 73.3658 27.6023C73.3658 27.3295 73.2635 27.1004 73.0589 26.9148C72.8582 26.7292 72.5495 26.589 72.1328 26.4943L70.6555 26.1705C69.8411 25.9848 69.2389 25.6894 68.8487 25.2841C68.4624 24.8788 68.2692 24.3655 68.2692 23.7443C68.2692 23.2292 68.4131 22.7784 68.701 22.392C68.9889 22.0057 69.3866 21.7045 69.8942 21.4886C70.4018 21.2689 70.9832 21.1591 71.6385 21.1591C72.5817 21.1591 73.3241 21.3636 73.8658 21.7727C74.4074 22.178 74.7654 22.7216 74.9396 23.4034Z" fill="#101828"/>
</g>
<defs>
<clipPath id="clip0_19697_489">
<rect width="20" height="20" fill="white" transform="translate(18 14)"/>
</clipPath>
</defs>
</svg>
