<svg width="123" height="44" viewBox="0 0 123 44" fill="none" xmlns="http://www.w3.org/2000/svg">
<g style="mix-blend-mode:multiply">
<rect width="123" height="44" rx="22" fill="#F2F4F7"/>
<g clip-path="url(#clip0_12068_501)">
<path fill-rule="evenodd" clip-rule="evenodd" d="M18.625 19.5C18.5315 19.5 18.4392 19.5211 18.3548 19.5615C18.2705 19.602 18.1964 19.6608 18.1378 19.7338C18.0793 19.8067 18.0379 19.8919 18.0166 19.9829C17.9953 20.074 17.9948 20.1687 18.015 20.26L20.08 29.5525C20.2341 30.2466 20.6203 30.8673 21.1748 31.3123C21.7294 31.7573 22.419 31.9998 23.13 32H30.37C31.081 31.9998 31.7706 31.7573 32.3251 31.3123C32.8797 30.8673 33.2659 30.2466 33.42 29.5525L33.5837 28.815C34.5399 28.9938 35.5281 28.7941 36.3398 28.2581C37.1515 27.722 37.7231 26.8915 37.934 25.9419C38.1449 24.9923 37.9785 23.9979 37.47 23.1686C36.9615 22.3394 36.1507 21.7402 35.2087 21.4975L35.485 20.26C35.5052 20.1687 35.5047 20.074 35.4834 19.9829C35.4621 19.8919 35.4207 19.8067 35.3622 19.7338C35.3036 19.6608 35.2295 19.602 35.1452 19.5615C35.0608 19.5211 34.9685 19.5 34.875 19.5H18.625ZM34.25 27.625C34.1177 27.6251 33.9856 27.6146 33.855 27.5938L34.9387 22.7212C35.5169 22.8887 36.0152 23.259 36.3424 23.7642C36.6695 24.2694 36.8036 24.8756 36.7198 25.4717C36.6361 26.0677 36.3403 26.6135 35.8866 27.0091C35.433 27.4046 34.8519 27.6233 34.25 27.625ZM21.3 29.2812L19.4037 20.75H34.0962L32.2 29.2812C32.1076 29.6977 31.8759 30.0702 31.5432 30.3373C31.2104 30.6043 30.7966 30.7499 30.37 30.75H23.13C22.7034 30.7499 22.2896 30.6043 21.9568 30.3373C21.6241 30.0702 21.3924 29.6977 21.3 29.2812Z" fill="#101828"/>
<path d="M23.5 13.0001L23.4962 13.0051L23.4787 13.0288C23.3878 13.154 23.3027 13.2833 23.2237 13.4163C23.1567 13.523 23.0978 13.6345 23.0475 13.7501C23.015 13.8251 23.005 13.8651 23.0012 13.8788V13.8838C23.0157 13.9943 23.0545 14.1002 23.115 14.1938C23.2088 14.3601 23.3375 14.5338 23.5 14.7501L23.5125 14.7651C23.66 14.9626 23.8375 15.1988 23.975 15.4438C24.115 15.6938 24.25 16.0126 24.25 16.3751C24.25 16.6101 24.1688 16.8351 24.1013 16.9926C24.029 17.1601 23.9446 17.3222 23.8487 17.4776C23.7507 17.6415 23.6452 17.8008 23.5325 17.9551L23.51 17.9863L23.5037 17.9963L23.5013 17.9988C23.402 18.1316 23.254 18.2195 23.0899 18.2431C22.9258 18.2668 22.759 18.2243 22.6262 18.1251C22.4935 18.0258 22.4056 17.8778 22.3819 17.7137C22.3582 17.5496 22.4007 17.3828 22.5 17.2501L22.5037 17.2451L22.5213 17.2213C22.6122 17.0962 22.6973 16.9668 22.7763 16.8338C22.8433 16.7272 22.9022 16.6156 22.9525 16.5001C22.985 16.4251 22.995 16.3851 22.9988 16.3713C22.9854 16.2592 22.947 16.1515 22.8862 16.0563C22.7702 15.8624 22.6412 15.6765 22.5 15.5001L22.4875 15.4851C22.3186 15.2692 22.1641 15.0424 22.025 14.8063C21.8547 14.5247 21.76 14.204 21.75 13.8751C21.75 13.6401 21.8312 13.4151 21.8987 13.2576C21.9725 13.0851 22.0663 12.9151 22.1513 12.7726C22.2505 12.6094 22.356 12.4501 22.4675 12.2951L22.4987 12.2513C22.598 12.1185 22.746 12.0306 22.9101 12.007C23.0742 11.9833 23.241 12.0258 23.3737 12.1251C23.5065 12.2243 23.5944 12.3723 23.6181 12.5364C23.6418 12.7005 23.5993 12.8673 23.5 13.0001ZM27.25 13.0001L27.2462 13.0051L27.2287 13.0288C27.1378 13.154 27.0527 13.2833 26.9738 13.4163C26.9067 13.523 26.8478 13.6345 26.7975 13.7501C26.765 13.8251 26.755 13.8651 26.7512 13.8788V13.8838C26.7657 13.9943 26.8045 14.1002 26.865 14.1938C26.9588 14.3601 27.0875 14.5338 27.25 14.7501L27.2625 14.7651C27.41 14.9626 27.5875 15.1988 27.725 15.4438C27.865 15.6938 28 16.0126 28 16.3751C28 16.6101 27.9188 16.8351 27.8513 16.9926C27.779 17.1601 27.6946 17.3222 27.5988 17.4776C27.5007 17.6415 27.3952 17.8008 27.2825 17.9551L27.26 17.9863L27.2537 17.9963L27.2513 17.9988C27.152 18.1316 27.004 18.2195 26.8399 18.2431C26.6758 18.2668 26.509 18.2243 26.3763 18.1251C26.2435 18.0258 26.1556 17.8778 26.1319 17.7137C26.1082 17.5496 26.1507 17.3828 26.25 17.2501L26.2538 17.2451L26.2713 17.2213C26.3622 17.0962 26.4473 16.9668 26.5262 16.8338C26.5933 16.7272 26.6522 16.6156 26.7025 16.5001C26.735 16.4251 26.745 16.3851 26.7488 16.3713C26.7354 16.2592 26.697 16.1515 26.6363 16.0563C26.5202 15.8624 26.3912 15.6765 26.25 15.5001L26.2375 15.4851C26.0686 15.2692 25.9141 15.0424 25.775 14.8063C25.6047 14.5247 25.51 14.204 25.5 13.8751C25.5 13.6401 25.5812 13.4151 25.6487 13.2576C25.7225 13.0851 25.8163 12.9151 25.9012 12.7726C26.0005 12.6094 26.106 12.4501 26.2175 12.2951L26.2487 12.2513C26.348 12.1185 26.496 12.0306 26.6601 12.007C26.8242 11.9833 26.991 12.0258 27.1237 12.1251C27.2565 12.2243 27.3444 12.3723 27.3681 12.5364C27.3918 12.7005 27.3493 12.8673 27.25 13.0001ZM31 13.0001L30.9963 13.0051L30.9788 13.0288C30.8878 13.154 30.8027 13.2833 30.7238 13.4163C30.6567 13.523 30.5978 13.6345 30.5475 13.7501C30.515 13.8251 30.505 13.8651 30.5013 13.8788V13.8838C30.5157 13.9943 30.5545 14.1002 30.615 14.1938C30.7087 14.3601 30.8375 14.5338 31 14.7501L31.0125 14.7651C31.16 14.9626 31.3375 15.1988 31.475 15.4438C31.615 15.6938 31.75 16.0126 31.75 16.3751C31.75 16.6101 31.6687 16.8351 31.6012 16.9926C31.529 17.1601 31.4446 17.3222 31.3488 17.4776C31.2511 17.6414 31.146 17.8008 31.0338 17.9551L31.01 17.9863L31.0037 17.9963L31.0013 17.9988C30.902 18.1316 30.754 18.2195 30.5899 18.2431C30.4258 18.2668 30.259 18.2243 30.1263 18.1251C29.9935 18.0258 29.9056 17.8778 29.8819 17.7137C29.8582 17.5496 29.9007 17.3828 30 17.2501L30.0037 17.2451L30.0212 17.2213C30.1122 17.0962 30.1973 16.9668 30.2762 16.8338C30.3433 16.7272 30.4022 16.6156 30.4525 16.5001C30.485 16.4251 30.495 16.3851 30.4987 16.3713C30.4854 16.2592 30.447 16.1515 30.3863 16.0563C30.2702 15.8624 30.1412 15.6765 30 15.5001L29.9875 15.4851C29.8186 15.2692 29.6641 15.0424 29.525 14.8063C29.3547 14.5247 29.26 14.204 29.25 13.8751C29.25 13.6401 29.3313 13.4151 29.3988 13.2576C29.4725 13.0851 29.5663 12.9151 29.6512 12.7726C29.7505 12.6094 29.856 12.4501 29.9675 12.2951L29.9987 12.2513C30.098 12.1185 30.246 12.0306 30.4101 12.007C30.5742 11.9833 30.741 12.0258 30.8737 12.1251C31.0065 12.2243 31.0944 12.3723 31.1181 12.5364C31.1418 12.7005 31.0993 12.8673 31 13.0001Z" fill="#101828"/>
</g>
<path d="M47.4425 28V16.3636H49.1982V21.9205H49.3402L54.2209 16.3636H56.4311L51.7379 21.6023L56.4482 28H54.3345L50.5732 22.8011L49.1982 24.3807V28H47.4425ZM58.478 28V19.2727H60.1768V28H58.478ZM59.3359 17.9261C59.0405 17.9261 58.7867 17.8277 58.5746 17.6307C58.3662 17.4299 58.2621 17.1913 58.2621 16.9148C58.2621 16.6345 58.3662 16.3958 58.5746 16.1989C58.7867 15.9981 59.0405 15.8977 59.3359 15.8977C59.6314 15.8977 59.8833 15.9981 60.0916 16.1989C60.3037 16.3958 60.4098 16.6345 60.4098 16.9148C60.4098 17.1913 60.3037 17.4299 60.0916 17.6307C59.8833 17.8277 59.6314 17.9261 59.3359 17.9261ZM66.5362 19.2727V20.6364H61.7692V19.2727H66.5362ZM63.0476 17.1818H64.7464V25.4375C64.7464 25.767 64.7957 26.0152 64.8942 26.1818C64.9927 26.3447 65.1196 26.4564 65.2749 26.517C65.4339 26.5739 65.6063 26.6023 65.7919 26.6023C65.9283 26.6023 66.0476 26.5928 66.1499 26.5739C66.2521 26.5549 66.3317 26.5398 66.3885 26.5284L66.6953 27.9318C66.5968 27.9697 66.4567 28.0076 66.2749 28.0455C66.093 28.0871 65.8658 28.1098 65.593 28.1136C65.1461 28.1212 64.7294 28.0417 64.343 27.875C63.9567 27.7083 63.6442 27.4508 63.4055 27.1023C63.1669 26.7538 63.0476 26.3163 63.0476 25.7898V17.1818ZM71.9979 28.1761C71.1532 28.1761 70.4259 27.9848 69.8161 27.6023C69.21 27.2159 68.7441 26.6837 68.4183 26.0057C68.0926 25.3277 67.9297 24.5511 67.9297 23.6761C67.9297 22.7898 68.0964 22.0076 68.4297 21.3295C68.763 20.6477 69.2327 20.1155 69.8388 19.733C70.4448 19.3504 71.1589 19.1591 71.9808 19.1591C72.6437 19.1591 73.2346 19.2822 73.7536 19.5284C74.2725 19.7708 74.6911 20.1117 75.0092 20.5511C75.3312 20.9905 75.5225 21.5038 75.5831 22.0909H73.9297C73.8388 21.6818 73.6304 21.3295 73.3047 21.0341C72.9827 20.7386 72.5509 20.5909 72.0092 20.5909C71.5357 20.5909 71.121 20.7159 70.7649 20.9659C70.4126 21.2121 70.138 21.5644 69.9411 22.0227C69.7441 22.4773 69.6456 23.0152 69.6456 23.6364C69.6456 24.2727 69.7422 24.822 69.9354 25.2841C70.1286 25.7462 70.4013 26.1042 70.7536 26.358C71.1096 26.6117 71.5282 26.7386 72.0092 26.7386C72.3312 26.7386 72.6229 26.6799 72.8842 26.5625C73.1494 26.4413 73.371 26.2689 73.549 26.0455C73.7308 25.822 73.8577 25.553 73.9297 25.2386H75.5831C75.5225 25.803 75.3388 26.3068 75.032 26.75C74.7251 27.1932 74.3142 27.5417 73.799 27.7955C73.2876 28.0492 72.6873 28.1761 71.9979 28.1761ZM79.0987 22.8182V28H77.3999V16.3636H79.076V20.6932H79.1839C79.3885 20.2235 79.701 19.8504 80.1214 19.5739C80.5419 19.2973 81.0911 19.1591 81.7692 19.1591C82.3677 19.1591 82.8904 19.2822 83.3374 19.5284C83.7881 19.7746 84.1366 20.142 84.3828 20.6307C84.6328 21.1155 84.7578 21.7216 84.7578 22.4489V28H83.0589V22.6534C83.0589 22.0133 82.8942 21.517 82.5646 21.1648C82.2351 20.8087 81.7768 20.6307 81.1896 20.6307C80.7881 20.6307 80.4283 20.7159 80.1101 20.8864C79.7957 21.0568 79.5476 21.3068 79.3658 21.6364C79.1877 21.9621 79.0987 22.3561 79.0987 22.8182ZM90.7862 28.1761C89.9264 28.1761 89.1858 27.9924 88.5646 27.625C87.9472 27.2538 87.4699 26.733 87.1328 26.0625C86.7995 25.3883 86.6328 24.5985 86.6328 23.6932C86.6328 22.7992 86.7995 22.0114 87.1328 21.3295C87.4699 20.6477 87.9396 20.1155 88.5419 19.733C89.148 19.3504 89.8563 19.1591 90.6669 19.1591C91.1593 19.1591 91.6366 19.2405 92.0987 19.4034C92.5608 19.5663 92.9756 19.822 93.343 20.1705C93.7105 20.5189 94.0002 20.9716 94.2124 21.5284C94.4245 22.0814 94.5305 22.7538 94.5305 23.5455V24.1477H87.593V22.875H92.8658C92.8658 22.428 92.7749 22.0322 92.593 21.6875C92.4112 21.339 92.1555 21.0644 91.826 20.8636C91.5002 20.6629 91.1177 20.5625 90.6783 20.5625C90.201 20.5625 89.7843 20.6799 89.4283 20.9148C89.076 21.1458 88.8033 21.4489 88.6101 21.8239C88.4207 22.1951 88.326 22.5985 88.326 23.0341V24.0284C88.326 24.6117 88.4283 25.108 88.6328 25.517C88.8411 25.9261 89.1309 26.2386 89.5021 26.4545C89.8733 26.6667 90.3071 26.7727 90.8033 26.7727C91.1252 26.7727 91.4188 26.7273 91.6839 26.6364C91.9491 26.5417 92.1783 26.4015 92.3714 26.2159C92.5646 26.0303 92.7124 25.8011 92.8146 25.5284L94.4226 25.8182C94.2938 26.2917 94.0627 26.7064 93.7294 27.0625C93.3999 27.4148 92.9851 27.6894 92.4851 27.8864C91.9889 28.0795 91.4226 28.1761 90.7862 28.1761ZM98.1143 22.8182V28H96.4155V19.2727H98.0462V20.6932H98.1541C98.3549 20.2311 98.6693 19.8598 99.0973 19.5795C99.5291 19.2992 100.073 19.1591 100.728 19.1591C101.323 19.1591 101.844 19.2841 102.29 19.5341C102.737 19.7803 103.084 20.1477 103.33 20.6364C103.576 21.125 103.7 21.7292 103.7 22.4489V28H102.001V22.6534C102.001 22.0208 101.836 21.5265 101.506 21.1705C101.177 20.8106 100.724 20.6307 100.148 20.6307C99.7545 20.6307 99.4041 20.7159 99.0973 20.8864C98.7943 21.0568 98.5537 21.3068 98.3757 21.6364C98.2015 21.9621 98.1143 22.3561 98.1143 22.8182Z" fill="#101828"/>
</g>
<defs>
<clipPath id="clip0_12068_501">
<rect width="20" height="20" fill="white" transform="translate(18 12)"/>
</clipPath>
</defs>
</svg>
