<svg width="147" height="48" viewBox="0 0 147 48" fill="none" xmlns="http://www.w3.org/2000/svg">
<g style="mix-blend-mode:multiply">
<rect width="147" height="48" rx="24" fill="#F2F4F7"/>
<path d="M34.6667 17.3333H21.3334C20.4129 17.3333 19.6667 18.0795 19.6667 19V28.1666C19.6667 29.0871 20.4129 29.8333 21.3334 29.8333H34.6667C35.5872 29.8333 36.3334 29.0871 36.3334 28.1666V19C36.3334 18.0795 35.5872 17.3333 34.6667 17.3333Z" stroke="#101828" stroke-width="1.25" stroke-linecap="round" stroke-linejoin="round"/>
<path d="M28.8333 20.6667H23.8333C23.3731 20.6667 23 21.0398 23 21.5V25.6667C23 26.1269 23.3731 26.5 23.8333 26.5H28.8333C29.2936 26.5 29.6667 26.1269 29.6667 25.6667V21.5C29.6667 21.0398 29.2936 20.6667 28.8333 20.6667Z" stroke="#101828" stroke-width="1.25" stroke-linecap="round" stroke-linejoin="round"/>
<path d="M33 20.6667V26.5M23 29.8334V31.5M33 29.8334V31.5" stroke="#101828" stroke-width="1.25" stroke-linecap="round" stroke-linejoin="round"/>
<path d="M47.3878 18.3636H49.5185L53.223 27.4091H53.3594L57.0639 18.3636H59.1946V30H57.5241V21.5795H57.4162L53.9844 29.983H52.598L49.1662 21.5739H49.0582V30H47.3878V18.3636ZM61.6108 30V21.2727H63.3097V30H61.6108ZM62.4688 19.9261C62.1733 19.9261 61.9195 19.8277 61.7074 19.6307C61.4991 19.4299 61.3949 19.1913 61.3949 18.9148C61.3949 18.6345 61.4991 18.3958 61.7074 18.1989C61.9195 17.9981 62.1733 17.8977 62.4688 17.8977C62.7642 17.8977 63.0161 17.9981 63.2244 18.1989C63.4366 18.3958 63.5426 18.6345 63.5426 18.9148C63.5426 19.1913 63.4366 19.4299 63.2244 19.6307C63.0161 19.8277 62.7642 19.9261 62.4688 19.9261ZM69.2713 30.1761C68.4266 30.1761 67.6993 29.9848 67.0895 29.6023C66.4834 29.2159 66.0175 28.6837 65.6918 28.0057C65.366 27.3277 65.2031 26.5511 65.2031 25.6761C65.2031 24.7898 65.3698 24.0076 65.7031 23.3295C66.0365 22.6477 66.5062 22.1155 67.1122 21.733C67.7183 21.3504 68.4323 21.1591 69.2543 21.1591C69.9171 21.1591 70.508 21.2822 71.027 21.5284C71.5459 21.7708 71.9645 22.1117 72.2827 22.5511C72.6046 22.9905 72.7959 23.5038 72.8565 24.0909H71.2031C71.1122 23.6818 70.9039 23.3295 70.5781 23.0341C70.2562 22.7386 69.8243 22.5909 69.2827 22.5909C68.8092 22.5909 68.3944 22.7159 68.0384 22.9659C67.6861 23.2121 67.4115 23.5644 67.2145 24.0227C67.0175 24.4773 66.919 25.0152 66.919 25.6364C66.919 26.2727 67.0156 26.822 67.2088 27.2841C67.402 27.7462 67.6747 28.1042 68.027 28.358C68.383 28.6117 68.8016 28.7386 69.2827 28.7386C69.6046 28.7386 69.8963 28.6799 70.1577 28.5625C70.4228 28.4413 70.6444 28.2689 70.8224 28.0455C71.0043 27.822 71.1312 27.553 71.2031 27.2386H72.8565C72.7959 27.803 72.6122 28.3068 72.3054 28.75C71.9986 29.1932 71.5876 29.5417 71.0724 29.7955C70.5611 30.0492 69.9607 30.1761 69.2713 30.1761ZM74.6733 30V21.2727H76.3153V22.6591H76.4062C76.5653 22.1894 76.8456 21.8201 77.2472 21.5511C77.6525 21.2784 78.1108 21.142 78.6222 21.142C78.7282 21.142 78.8532 21.1458 78.9972 21.1534C79.1449 21.161 79.2604 21.1705 79.3438 21.1818V22.8068C79.2756 22.7879 79.1544 22.767 78.9801 22.7443C78.8059 22.7178 78.6316 22.7045 78.4574 22.7045C78.0559 22.7045 77.6979 22.7898 77.3835 22.9602C77.0729 23.1269 76.8267 23.3598 76.6449 23.6591C76.4631 23.9545 76.3722 24.2917 76.3722 24.6705V30H74.6733ZM84.1776 30.1761C83.3594 30.1761 82.6454 29.9886 82.0355 29.6136C81.4257 29.2386 80.9522 28.714 80.6151 28.0398C80.2779 27.3655 80.1094 26.5777 80.1094 25.6761C80.1094 24.7708 80.2779 23.9792 80.6151 23.3011C80.9522 22.6231 81.4257 22.0966 82.0355 21.7216C82.6454 21.3466 83.3594 21.1591 84.1776 21.1591C84.9957 21.1591 85.7098 21.3466 86.3196 21.7216C86.9295 22.0966 87.4029 22.6231 87.7401 23.3011C88.0772 23.9792 88.2457 24.7708 88.2457 25.6761C88.2457 26.5777 88.0772 27.3655 87.7401 28.0398C87.4029 28.714 86.9295 29.2386 86.3196 29.6136C85.7098 29.9886 84.9957 30.1761 84.1776 30.1761ZM84.1832 28.75C84.7135 28.75 85.1529 28.6098 85.5014 28.3295C85.8499 28.0492 86.1075 27.6761 86.2741 27.2102C86.4446 26.7443 86.5298 26.2311 86.5298 25.6705C86.5298 25.1136 86.4446 24.6023 86.2741 24.1364C86.1075 23.6667 85.8499 23.2898 85.5014 23.0057C85.1529 22.7216 84.7135 22.5795 84.1832 22.5795C83.6491 22.5795 83.206 22.7216 82.8537 23.0057C82.5052 23.2898 82.2457 23.6667 82.0753 24.1364C81.9086 24.6023 81.8253 25.1136 81.8253 25.6705C81.8253 26.2311 81.9086 26.7443 82.0753 27.2102C82.2457 27.6761 82.5052 28.0492 82.8537 28.3295C83.206 28.6098 83.6491 28.75 84.1832 28.75ZM91.7685 30L89.2003 21.2727H90.956L92.6662 27.6818H92.7514L94.4673 21.2727H96.223L97.9276 27.6534H98.0128L99.7116 21.2727H101.467L98.9048 30H97.1719L95.3991 23.6989H95.2685L93.4957 30H91.7685ZM105.619 30.1932C105.066 30.1932 104.566 30.0909 104.119 29.8864C103.672 29.678 103.318 29.3769 103.057 28.983C102.799 28.589 102.67 28.1061 102.67 27.5341C102.67 27.0417 102.765 26.6364 102.955 26.3182C103.144 26 103.4 25.7481 103.722 25.5625C104.044 25.3769 104.403 25.2367 104.801 25.142C105.199 25.0473 105.604 24.9754 106.017 24.9261C106.54 24.8655 106.964 24.8163 107.29 24.7784C107.616 24.7367 107.852 24.6705 108 24.5795C108.148 24.4886 108.222 24.3409 108.222 24.1364V24.0966C108.222 23.6004 108.081 23.2159 107.801 22.9432C107.525 22.6705 107.112 22.5341 106.562 22.5341C105.991 22.5341 105.54 22.661 105.21 22.9148C104.884 23.1648 104.659 23.4432 104.534 23.75L102.938 23.3864C103.127 22.8561 103.403 22.428 103.767 22.1023C104.134 21.7727 104.557 21.5341 105.034 21.3864C105.511 21.2348 106.013 21.1591 106.54 21.1591C106.888 21.1591 107.258 21.2008 107.648 21.2841C108.042 21.3636 108.409 21.5114 108.75 21.7273C109.095 21.9432 109.377 22.2519 109.597 22.6534C109.816 23.0511 109.926 23.5682 109.926 24.2045V30H108.267V28.8068H108.199C108.089 29.0265 107.924 29.2424 107.705 29.4545C107.485 29.6667 107.203 29.8428 106.858 29.983C106.513 30.1231 106.1 30.1932 105.619 30.1932ZM105.989 28.8295C106.458 28.8295 106.86 28.7367 107.193 28.5511C107.53 28.3655 107.786 28.1231 107.96 27.8239C108.138 27.5208 108.227 27.197 108.227 26.8523V25.7273C108.167 25.7879 108.049 25.8447 107.875 25.8977C107.705 25.947 107.509 25.9905 107.29 26.0284C107.07 26.0625 106.856 26.0947 106.648 26.125C106.439 26.1515 106.265 26.1742 106.125 26.1932C105.795 26.2348 105.494 26.3049 105.222 26.4034C104.953 26.5019 104.737 26.6439 104.574 26.8295C104.415 27.0114 104.335 27.2538 104.335 27.5568C104.335 27.9773 104.491 28.2955 104.801 28.5114C105.112 28.7235 105.508 28.8295 105.989 28.8295ZM119.342 21.2727L116.178 30H114.359L111.189 21.2727H113.013L115.223 27.9886H115.314L117.518 21.2727H119.342ZM124.403 30.1761C123.544 30.1761 122.803 29.9924 122.182 29.625C121.564 29.2538 121.087 28.733 120.75 28.0625C120.417 27.3883 120.25 26.5985 120.25 25.6932C120.25 24.7992 120.417 24.0114 120.75 23.3295C121.087 22.6477 121.557 22.1155 122.159 21.733C122.765 21.3504 123.473 21.1591 124.284 21.1591C124.777 21.1591 125.254 21.2405 125.716 21.4034C126.178 21.5663 126.593 21.822 126.96 22.1705C127.328 22.5189 127.617 22.9716 127.83 23.5284C128.042 24.0814 128.148 24.7538 128.148 25.5455V26.1477H121.21V24.875H126.483C126.483 24.428 126.392 24.0322 126.21 23.6875C126.028 23.339 125.773 23.0644 125.443 22.8636C125.117 22.6629 124.735 22.5625 124.295 22.5625C123.818 22.5625 123.402 22.6799 123.045 22.9148C122.693 23.1458 122.42 23.4489 122.227 23.8239C122.038 24.1951 121.943 24.5985 121.943 25.0341V26.0284C121.943 26.6117 122.045 27.108 122.25 27.517C122.458 27.9261 122.748 28.2386 123.119 28.4545C123.491 28.6667 123.924 28.7727 124.42 28.7727C124.742 28.7727 125.036 28.7273 125.301 28.6364C125.566 28.5417 125.795 28.4015 125.989 28.2159C126.182 28.0303 126.33 27.8011 126.432 27.5284L128.04 27.8182C127.911 28.2917 127.68 28.7064 127.347 29.0625C127.017 29.4148 126.602 29.6894 126.102 29.8864C125.606 30.0795 125.04 30.1761 124.403 30.1761Z" fill="#101828"/>
</g>
</svg>
