<svg width="108" height="44" viewBox="0 0 108 44" fill="none" xmlns="http://www.w3.org/2000/svg">
<g style="mix-blend-mode:multiply">
<rect width="108" height="44" rx="22" fill="#F2F4F7"/>
<path d="M26.75 15.125C26.75 14.9592 26.8158 14.8003 26.9331 14.6831C27.0503 14.5658 27.2092 14.5 27.375 14.5H36.125C36.2908 14.5 36.4497 14.5658 36.5669 14.6831C36.6842 14.8003 36.75 14.9592 36.75 15.125V16.375C36.75 16.5408 36.6842 16.6997 36.5669 16.8169C36.4497 16.9342 36.2908 17 36.125 17H27.375C27.2092 17 27.0503 16.9342 26.9331 16.8169C26.8158 16.6997 26.75 16.5408 26.75 16.375V15.125ZM18 27C18 26.0054 18.3951 25.0516 19.0983 24.3483C19.8016 23.6451 20.7554 23.25 21.75 23.25C22.7446 23.25 23.6984 23.6451 24.4017 24.3483C25.1049 25.0516 25.5 26.0054 25.5 27C25.5 27.9946 25.1049 28.9484 24.4017 29.6517C23.6984 30.3549 22.7446 30.75 21.75 30.75C20.7554 30.75 19.8016 30.3549 19.0983 29.6517C18.3951 28.9484 18 27.9946 18 27ZM26.75 25.125C26.75 24.9592 26.8158 24.8003 26.9331 24.6831C27.0503 24.5658 27.2092 24.5 27.375 24.5H36.125C36.2908 24.5 36.4497 24.5658 36.5669 24.6831C36.6842 24.8003 36.75 24.9592 36.75 25.125V26.375C36.75 26.5408 36.6842 26.6997 36.5669 26.8169C36.4497 26.9342 36.2908 27 36.125 27H27.375C27.2092 27 27.0503 26.9342 26.9331 26.8169C26.8158 26.6997 26.75 26.5408 26.75 26.375V25.125ZM26.75 18.875C26.75 18.7092 26.8158 18.5503 26.9331 18.4331C27.0503 18.3158 27.2092 18.25 27.375 18.25H33.625C33.7908 18.25 33.9497 18.3158 34.0669 18.4331C34.1842 18.5503 34.25 18.7092 34.25 18.875C34.25 19.0408 34.1842 19.1997 34.0669 19.3169C33.9497 19.4342 33.7908 19.5 33.625 19.5H27.375C27.2092 19.5 27.0503 19.4342 26.9331 19.3169C26.8158 19.1997 26.75 19.0408 26.75 18.875ZM26.75 28.875C26.75 28.7092 26.8158 28.5503 26.9331 28.4331C27.0503 28.3158 27.2092 28.25 27.375 28.25H33.625C33.7908 28.25 33.9497 28.3158 34.0669 28.4331C34.1842 28.5503 34.25 28.7092 34.25 28.875C34.25 29.0408 34.1842 29.1997 34.0669 29.3169C33.9497 29.4342 33.7908 29.5 33.625 29.5H27.375C27.2092 29.5 27.0503 29.4342 26.9331 29.3169C26.8158 29.1997 26.75 29.0408 26.75 28.875ZM21.75 13.25C21.2575 13.25 20.7699 13.347 20.3149 13.5355C19.86 13.7239 19.4466 14.0001 19.0983 14.3483C18.7501 14.6966 18.4739 15.11 18.2855 15.5649C18.097 16.0199 18 16.5075 18 17C18 17.4925 18.097 17.9801 18.2855 18.4351C18.4739 18.89 18.7501 19.3034 19.0983 19.6517C19.4466 19.9999 19.86 20.2761 20.3149 20.4645C20.7699 20.653 21.2575 20.75 21.75 20.75C22.7446 20.75 23.6984 20.3549 24.4017 19.6517C25.1049 18.9484 25.5 17.9946 25.5 17C25.5 16.0054 25.1049 15.0516 24.4017 14.3483C23.6984 13.6451 22.7446 13.25 21.75 13.25ZM21.75 18.875C21.2527 18.875 20.7758 18.6775 20.4242 18.3258C20.0725 17.9742 19.875 17.4973 19.875 17C19.875 16.5027 20.0725 16.0258 20.4242 15.6742C20.7758 15.3225 21.2527 15.125 21.75 15.125C22.2473 15.125 22.7242 15.3225 23.0758 15.6742C23.4275 16.0258 23.625 16.5027 23.625 17C23.625 17.4973 23.4275 17.9742 23.0758 18.3258C22.7242 18.6775 22.2473 18.875 21.75 18.875Z" fill="#101828"/>
<path d="M47.7472 28V16.3636H51.8949C52.7964 16.3636 53.5445 16.5189 54.1392 16.8295C54.7377 17.1402 55.1847 17.5701 55.4801 18.1193C55.7756 18.6648 55.9233 19.2955 55.9233 20.0114C55.9233 20.7235 55.7737 21.3504 55.4744 21.892C55.179 22.4299 54.732 22.8485 54.1335 23.1477C53.5388 23.447 52.7907 23.5966 51.8892 23.5966H48.7472V22.0852H51.7301C52.2983 22.0852 52.7604 22.0038 53.1165 21.8409C53.4763 21.678 53.7396 21.4413 53.9062 21.1307C54.0729 20.8201 54.1562 20.447 54.1562 20.0114C54.1562 19.572 54.071 19.1913 53.9006 18.8693C53.7339 18.5473 53.4706 18.3011 53.1108 18.1307C52.7547 17.9564 52.2869 17.8693 51.7074 17.8693H49.5028V28H47.7472ZM53.4915 22.75L56.3665 28H54.3665L51.5483 22.75H53.4915ZM60.4631 28.1932C59.91 28.1932 59.41 28.0909 58.9631 27.8864C58.5161 27.678 58.1619 27.3769 57.9006 26.983C57.643 26.589 57.5142 26.1061 57.5142 25.5341C57.5142 25.0417 57.6089 24.6364 57.7983 24.3182C57.9877 24 58.2434 23.7481 58.5653 23.5625C58.8873 23.3769 59.2472 23.2367 59.6449 23.142C60.0426 23.0473 60.4479 22.9754 60.8608 22.9261C61.3835 22.8655 61.8078 22.8163 62.1335 22.7784C62.4593 22.7367 62.696 22.6705 62.8438 22.5795C62.9915 22.4886 63.0653 22.3409 63.0653 22.1364V22.0966C63.0653 21.6004 62.9252 21.2159 62.6449 20.9432C62.3684 20.6705 61.9555 20.5341 61.4062 20.5341C60.8343 20.5341 60.3835 20.661 60.054 20.9148C59.7282 21.1648 59.5028 21.4432 59.3778 21.75L57.7812 21.3864C57.9706 20.8561 58.2472 20.428 58.6108 20.1023C58.9782 19.7727 59.4006 19.5341 59.8778 19.3864C60.3551 19.2348 60.857 19.1591 61.3835 19.1591C61.732 19.1591 62.1013 19.2008 62.4915 19.2841C62.8854 19.3636 63.2528 19.5114 63.5938 19.7273C63.9384 19.9432 64.2206 20.2519 64.4403 20.6534C64.66 21.0511 64.7699 21.5682 64.7699 22.2045V28H63.1108V26.8068H63.0426C62.9328 27.0265 62.768 27.2424 62.5483 27.4545C62.3286 27.6667 62.0464 27.8428 61.7017 27.983C61.357 28.1231 60.9441 28.1932 60.4631 28.1932ZM60.8324 26.8295C61.3021 26.8295 61.7036 26.7367 62.0369 26.5511C62.3741 26.3655 62.6297 26.1231 62.804 25.8239C62.982 25.5208 63.071 25.197 63.071 24.8523V23.7273C63.0104 23.7879 62.893 23.8447 62.7188 23.8977C62.5483 23.947 62.3532 23.9905 62.1335 24.0284C61.9138 24.0625 61.6998 24.0947 61.4915 24.125C61.2831 24.1515 61.1089 24.1742 60.9688 24.1932C60.6392 24.2348 60.3381 24.3049 60.0653 24.4034C59.7964 24.5019 59.5805 24.6439 59.4176 24.8295C59.2585 25.0114 59.179 25.2538 59.179 25.5568C59.179 25.9773 59.3343 26.2955 59.6449 26.5114C59.9555 26.7235 60.3513 26.8295 60.8324 26.8295ZM70.2997 28.1705C69.5952 28.1705 68.9664 27.9905 68.4134 27.6307C67.8641 27.267 67.4323 26.75 67.1179 26.0795C66.8073 25.4053 66.652 24.5966 66.652 23.6534C66.652 22.7102 66.8092 21.9034 67.1236 21.233C67.4418 20.5625 67.8774 20.0492 68.4304 19.6932C68.9834 19.3371 69.6103 19.1591 70.3111 19.1591C70.8527 19.1591 71.2884 19.25 71.6179 19.4318C71.9512 19.6098 72.2088 19.8182 72.3906 20.0568C72.5762 20.2955 72.7202 20.5057 72.8224 20.6875H72.9247V16.3636H74.6236V28H72.9645V26.642H72.8224C72.7202 26.8277 72.5724 27.0398 72.3793 27.2784C72.1899 27.517 71.9285 27.7254 71.5952 27.9034C71.2618 28.0814 70.83 28.1705 70.2997 28.1705ZM70.6747 26.7216C71.1634 26.7216 71.5762 26.5928 71.9134 26.3352C72.2543 26.0739 72.5118 25.7121 72.6861 25.25C72.8641 24.7879 72.9531 24.25 72.9531 23.6364C72.9531 23.0303 72.866 22.5 72.6918 22.0455C72.5175 21.5909 72.2618 21.2367 71.9247 20.983C71.5876 20.7292 71.1709 20.6023 70.6747 20.6023C70.1634 20.6023 69.7372 20.7348 69.3963 21C69.0554 21.2652 68.7978 21.6269 68.6236 22.0852C68.4531 22.5436 68.3679 23.0606 68.3679 23.6364C68.3679 24.2197 68.455 24.7443 68.6293 25.2102C68.8035 25.6761 69.0611 26.0455 69.402 26.3182C69.7467 26.5871 70.1709 26.7216 70.6747 26.7216ZM77.0483 28V19.2727H78.7472V28H77.0483ZM77.9062 17.9261C77.6108 17.9261 77.357 17.8277 77.1449 17.6307C76.9366 17.4299 76.8324 17.1913 76.8324 16.9148C76.8324 16.6345 76.9366 16.3958 77.1449 16.1989C77.357 15.9981 77.6108 15.8977 77.9062 15.8977C78.2017 15.8977 78.4536 15.9981 78.6619 16.1989C78.8741 16.3958 78.9801 16.6345 78.9801 16.9148C78.9801 17.1913 78.8741 17.4299 78.6619 17.6307C78.4536 17.8277 78.2017 17.9261 77.9062 17.9261ZM84.7088 28.1761C83.8906 28.1761 83.1766 27.9886 82.5668 27.6136C81.9569 27.2386 81.4834 26.714 81.1463 26.0398C80.8092 25.3655 80.6406 24.5777 80.6406 23.6761C80.6406 22.7708 80.8092 21.9792 81.1463 21.3011C81.4834 20.6231 81.9569 20.0966 82.5668 19.7216C83.1766 19.3466 83.8906 19.1591 84.7088 19.1591C85.527 19.1591 86.241 19.3466 86.8509 19.7216C87.4607 20.0966 87.9342 20.6231 88.2713 21.3011C88.6084 21.9792 88.777 22.7708 88.777 23.6761C88.777 24.5777 88.6084 25.3655 88.2713 26.0398C87.9342 26.714 87.4607 27.2386 86.8509 27.6136C86.241 27.9886 85.527 28.1761 84.7088 28.1761ZM84.7145 26.75C85.2448 26.75 85.6842 26.6098 86.0327 26.3295C86.3812 26.0492 86.6387 25.6761 86.8054 25.2102C86.9759 24.7443 87.0611 24.2311 87.0611 23.6705C87.0611 23.1136 86.9759 22.6023 86.8054 22.1364C86.6387 21.6667 86.3812 21.2898 86.0327 21.0057C85.6842 20.7216 85.2448 20.5795 84.7145 20.5795C84.1804 20.5795 83.7372 20.7216 83.3849 21.0057C83.0365 21.2898 82.777 21.6667 82.6065 22.1364C82.4399 22.6023 82.3565 23.1136 82.3565 23.6705C82.3565 24.2311 82.4399 24.7443 82.6065 25.2102C82.777 25.6761 83.0365 26.0492 83.3849 26.3295C83.7372 26.6098 84.1804 26.75 84.7145 26.75Z" fill="#101828"/>
</g>
</svg>
