<svg width="156" height="48" viewBox="0 0 156 48" fill="none" xmlns="http://www.w3.org/2000/svg">
<g style="mix-blend-mode:multiply">
<rect width="156" height="48" rx="24" fill="#F2F4F7"/>
<path d="M32.7917 19.8333C32.7917 19.6676 32.7258 19.5086 32.6086 19.3914C32.4914 19.2742 32.3324 19.2083 32.1667 19.2083C32.0009 19.2083 31.8419 19.2742 31.7247 19.3914C31.6075 19.5086 31.5417 19.6676 31.5417 19.8333V21.5C31.5417 21.6657 31.6075 21.8247 31.7247 21.9419C31.8419 22.0591 32.0009 22.125 32.1667 22.125C32.3324 22.125 32.4914 22.0591 32.6086 21.9419C32.7258 21.8247 32.7917 21.6657 32.7917 21.5V19.8333ZM32.7917 25.6666C32.7917 25.5009 32.7258 25.3419 32.6086 25.2247C32.4914 25.1075 32.3324 25.0416 32.1667 25.0416C32.0009 25.0416 31.8419 25.1075 31.7247 25.2247C31.6075 25.3419 31.5417 25.5009 31.5417 25.6666V27.3333C31.5417 27.4991 31.6075 27.658 31.7247 27.7753C31.8419 27.8925 32.0009 27.9583 32.1667 27.9583C32.3324 27.9583 32.4914 27.8925 32.6086 27.7753C32.7258 27.658 32.7917 27.4991 32.7917 27.3333V25.6666Z" fill="#101828"/>
<path fill-rule="evenodd" clip-rule="evenodd" d="M28.0467 15.0417H27.9533C26.4217 15.0417 25.2083 15.0417 24.2592 15.1692C23.2825 15.3009 22.4917 15.5775 21.8675 16.2009C21.2442 16.825 20.9675 17.6159 20.8358 18.5925C20.7083 19.5425 20.7083 20.755 20.7083 22.2867V24.88C20.7083 26.4117 20.7083 27.625 20.8358 28.5742C20.9675 29.5509 21.2442 30.3417 21.8675 30.9659C22.2508 31.3484 22.6958 31.6 23.2083 31.7684V32.3334C23.2083 32.6784 23.4883 32.9584 23.8333 32.9584H24.6667C24.8324 32.9584 24.9914 32.8925 25.1086 32.7753C25.2258 32.6581 25.2917 32.4991 25.2917 32.3334V32.0867C26.0475 32.125 26.9292 32.125 27.9533 32.125H28.0467C29.0717 32.125 29.9525 32.125 30.7083 32.0867V32.3334C30.7083 32.6784 30.9883 32.9584 31.3333 32.9584H32.1667C32.3324 32.9584 32.4914 32.8925 32.6086 32.7753C32.7258 32.6581 32.7917 32.4991 32.7917 32.3334V31.7684C33.3042 31.6 33.75 31.3484 34.1325 30.9659C34.7558 30.3417 35.0325 29.5509 35.1642 28.5742C35.2917 27.6242 35.2917 26.4117 35.2917 24.88V22.2875C35.2917 20.7559 35.2917 19.5425 35.1642 18.5934C35.0325 17.6167 34.7558 16.8259 34.1325 16.2017C33.5083 15.5784 32.7175 15.3017 31.7408 15.17C30.7908 15.0425 29.5783 15.0425 28.0467 15.0425M22.7517 17.085C23.1042 16.7325 23.5875 16.5209 24.4258 16.4084C25.2825 16.2934 26.4108 16.2917 28 16.2917C29.5892 16.2917 30.7183 16.2934 31.575 16.4084C32.4125 16.5209 32.8958 16.7325 33.2483 17.085C33.6008 17.4375 33.8125 17.9209 33.925 18.7592C34.04 19.6159 34.0417 20.7442 34.0417 22.3334V22.9584H21.9583V22.3334C21.9583 20.7442 21.96 19.6159 22.075 18.7584C22.1875 17.9209 22.3992 17.4375 22.7517 17.085ZM21.9583 24.2084H34.0417V24.8334C34.0417 26.4225 34.04 27.5517 33.925 28.4084C33.8125 29.2459 33.6008 29.7292 33.2483 30.0817C32.8958 30.4342 32.4125 30.6459 31.5742 30.7584C30.7175 30.8734 29.5892 30.875 28 30.875C26.4108 30.875 25.2825 30.8734 24.425 30.7584C23.5875 30.6459 23.1042 30.4342 22.7517 30.0817C22.3992 29.7292 22.1875 29.2459 22.075 28.4075C21.96 27.5517 21.9583 26.4225 21.9583 24.8334V24.2084Z" fill="#101828"/>
<path d="M47.4268 30V18.3636H51.5746C52.4761 18.3636 53.2242 18.5189 53.8189 18.8295C54.4174 19.1402 54.8643 19.5701 55.1598 20.1193C55.4553 20.6648 55.603 21.2955 55.603 22.0114C55.603 22.7235 55.4534 23.3504 55.1541 23.892C54.8587 24.4299 54.4117 24.8485 53.8132 25.1477C53.2185 25.447 52.4704 25.5966 51.5689 25.5966H48.4268V24.0852H51.4098C51.978 24.0852 52.4401 24.0038 52.7962 23.8409C53.156 23.678 53.4193 23.4413 53.5859 23.1307C53.7526 22.8201 53.8359 22.447 53.8359 22.0114C53.8359 21.572 53.7507 21.1913 53.5803 20.8693C53.4136 20.5473 53.1503 20.3011 52.7905 20.1307C52.4344 19.9564 51.9666 19.8693 51.3871 19.8693H49.1825V30H47.4268ZM53.1712 24.75L56.0462 30H54.0462L51.228 24.75H53.1712ZM61.255 30.1761C60.3951 30.1761 59.6546 29.9924 59.0334 29.625C58.416 29.2538 57.9387 28.733 57.6016 28.0625C57.2682 27.3883 57.1016 26.5985 57.1016 25.6932C57.1016 24.7992 57.2682 24.0114 57.6016 23.3295C57.9387 22.6477 58.4084 22.1155 59.0107 21.733C59.6167 21.3504 60.325 21.1591 61.1357 21.1591C61.6281 21.1591 62.1054 21.2405 62.5675 21.4034C63.0296 21.5663 63.4444 21.822 63.8118 22.1705C64.1792 22.5189 64.469 22.9716 64.6811 23.5284C64.8932 24.0814 64.9993 24.7538 64.9993 25.5455V26.1477H58.0618V24.875H63.3345C63.3345 24.428 63.2436 24.0322 63.0618 23.6875C62.88 23.339 62.6243 23.0644 62.2947 22.8636C61.969 22.6629 61.5864 22.5625 61.147 22.5625C60.6697 22.5625 60.2531 22.6799 59.897 22.9148C59.5447 23.1458 59.272 23.4489 59.0788 23.8239C58.8894 24.1951 58.7947 24.5985 58.7947 25.0341V26.0284C58.7947 26.6117 58.897 27.108 59.1016 27.517C59.3099 27.9261 59.5997 28.2386 59.9709 28.4545C60.3421 28.6667 60.7758 28.7727 61.272 28.7727C61.594 28.7727 61.8875 28.7273 62.1527 28.6364C62.4179 28.5417 62.647 28.4015 62.8402 28.2159C63.0334 28.0303 63.1811 27.8011 63.2834 27.5284L64.8913 27.8182C64.7625 28.2917 64.5315 28.7064 64.1982 29.0625C63.8686 29.4148 63.4538 29.6894 62.9538 29.8864C62.4576 30.0795 61.8913 30.1761 61.255 30.1761ZM71.0376 21.2727V22.6364H66.1058V21.2727H71.0376ZM67.4581 30V20.2614C67.4581 19.7159 67.5774 19.2633 67.8161 18.9034C68.0547 18.5398 68.371 18.2689 68.7649 18.0909C69.1589 17.9091 69.5869 17.8182 70.049 17.8182C70.3899 17.8182 70.6816 17.8466 70.924 17.9034C71.1664 17.9564 71.3464 18.0057 71.4638 18.0511L71.0661 19.4261C70.9865 19.4034 70.8842 19.3769 70.7592 19.3466C70.6342 19.3125 70.4827 19.2955 70.3047 19.2955C69.8918 19.2955 69.5964 19.3977 69.4183 19.6023C69.2441 19.8068 69.157 20.1023 69.157 20.4886V30H67.4581ZM72.7905 30V21.2727H74.4325V22.6591H74.5234C74.6825 22.1894 74.9628 21.8201 75.3643 21.5511C75.7696 21.2784 76.228 21.142 76.7393 21.142C76.8454 21.142 76.9704 21.1458 77.1143 21.1534C77.2621 21.161 77.3776 21.1705 77.4609 21.1818V22.8068C77.3928 22.7879 77.2715 22.767 77.0973 22.7443C76.9231 22.7178 76.7488 22.7045 76.5746 22.7045C76.1731 22.7045 75.8151 22.7898 75.5007 22.9602C75.1901 23.1269 74.9439 23.3598 74.7621 23.6591C74.5803 23.9545 74.4893 24.2917 74.4893 24.6705V30H72.7905ZM78.9311 30V21.2727H80.63V30H78.9311ZM79.7891 19.9261C79.4936 19.9261 79.2398 19.8277 79.0277 19.6307C78.8194 19.4299 78.7152 19.1913 78.7152 18.9148C78.7152 18.6345 78.8194 18.3958 79.0277 18.1989C79.2398 17.9981 79.4936 17.8977 79.7891 17.8977C80.0845 17.8977 80.3364 17.9981 80.5447 18.1989C80.7569 18.3958 80.8629 18.6345 80.8629 18.9148C80.8629 19.1913 80.7569 19.4299 80.5447 19.6307C80.3364 19.8277 80.0845 19.9261 79.7891 19.9261ZM86.5746 33.4545C85.8814 33.4545 85.2848 33.3636 84.7848 33.1818C84.2886 33 83.8833 32.7595 83.5689 32.4602C83.2545 32.161 83.0196 31.8333 82.8643 31.4773L84.3246 30.875C84.4268 31.0417 84.5632 31.2178 84.7337 31.4034C84.9079 31.5928 85.1428 31.7538 85.4382 31.8864C85.7375 32.0189 86.1219 32.0852 86.5916 32.0852C87.2356 32.0852 87.7678 31.928 88.1882 31.6136C88.6087 31.303 88.8189 30.8068 88.8189 30.125V28.4091H88.7109C88.6087 28.5947 88.4609 28.8011 88.2678 29.0284C88.0784 29.2557 87.817 29.4527 87.4837 29.6193C87.1503 29.786 86.7166 29.8693 86.1825 29.8693C85.4931 29.8693 84.8719 29.7083 84.3189 29.3864C83.7696 29.0606 83.334 28.5814 83.0121 27.9489C82.6939 27.3125 82.5348 26.5303 82.5348 25.6023C82.5348 24.6742 82.692 23.8788 83.0064 23.2159C83.3246 22.553 83.7602 22.0455 84.3132 21.6932C84.8662 21.3371 85.4931 21.1591 86.1939 21.1591C86.7356 21.1591 87.1731 21.25 87.5064 21.4318C87.8397 21.6098 88.0992 21.8182 88.2848 22.0568C88.4742 22.2955 88.62 22.5057 88.7223 22.6875H88.8473V21.2727H90.5121V30.1932C90.5121 30.9432 90.3378 31.5587 89.9893 32.0398C89.6409 32.5208 89.1693 32.8769 88.5746 33.108C87.9837 33.339 87.317 33.4545 86.5746 33.4545ZM86.5575 28.4602C87.0462 28.4602 87.459 28.3466 87.7962 28.1193C88.1371 27.8883 88.3946 27.5587 88.5689 27.1307C88.7469 26.6989 88.8359 26.1818 88.8359 25.5795C88.8359 24.9924 88.7488 24.4754 88.5746 24.0284C88.4003 23.5814 88.1446 23.233 87.8075 22.983C87.4704 22.7292 87.0537 22.6023 86.5575 22.6023C86.0462 22.6023 85.62 22.7348 85.2791 23C84.9382 23.2614 84.6806 23.6174 84.5064 24.0682C84.3359 24.5189 84.2507 25.0227 84.2507 25.5795C84.2507 26.1515 84.3378 26.6534 84.5121 27.0852C84.6863 27.517 84.9439 27.8542 85.2848 28.0966C85.6295 28.339 86.0537 28.4602 86.5575 28.4602ZM96.5518 30.1761C95.692 30.1761 94.9515 29.9924 94.3303 29.625C93.7128 29.2538 93.2356 28.733 92.8984 28.0625C92.5651 27.3883 92.3984 26.5985 92.3984 25.6932C92.3984 24.7992 92.5651 24.0114 92.8984 23.3295C93.2356 22.6477 93.7053 22.1155 94.3075 21.733C94.9136 21.3504 95.6219 21.1591 96.4325 21.1591C96.925 21.1591 97.4022 21.2405 97.8643 21.4034C98.3265 21.5663 98.7412 21.822 99.1087 22.1705C99.4761 22.5189 99.7659 22.9716 99.978 23.5284C100.19 24.0814 100.296 24.7538 100.296 25.5455V26.1477H93.3587V24.875H98.6314C98.6314 24.428 98.5405 24.0322 98.3587 23.6875C98.1768 23.339 97.9212 23.0644 97.5916 22.8636C97.2659 22.6629 96.8833 22.5625 96.4439 22.5625C95.9666 22.5625 95.55 22.6799 95.1939 22.9148C94.8416 23.1458 94.5689 23.4489 94.3757 23.8239C94.1863 24.1951 94.0916 24.5985 94.0916 25.0341V26.0284C94.0916 26.6117 94.1939 27.108 94.3984 27.517C94.6068 27.9261 94.8965 28.2386 95.2678 28.4545C95.639 28.6667 96.0727 28.7727 96.5689 28.7727C96.8909 28.7727 97.1844 28.7273 97.4496 28.6364C97.7147 28.5417 97.9439 28.4015 98.1371 28.2159C98.3303 28.0303 98.478 27.8011 98.5803 27.5284L100.188 27.8182C100.059 28.2917 99.8284 28.7064 99.495 29.0625C99.1655 29.4148 98.7507 29.6894 98.2507 29.8864C97.7545 30.0795 97.1882 30.1761 96.5518 30.1761ZM102.181 30V21.2727H103.823V22.6591H103.914C104.073 22.1894 104.353 21.8201 104.755 21.5511C105.16 21.2784 105.619 21.142 106.13 21.142C106.236 21.142 106.361 21.1458 106.505 21.1534C106.653 21.161 106.768 21.1705 106.852 21.1818V22.8068C106.783 22.7879 106.662 22.767 106.488 22.7443C106.314 22.7178 106.139 22.7045 105.965 22.7045C105.564 22.7045 105.206 22.7898 104.891 22.9602C104.581 23.1269 104.335 23.3598 104.153 23.6591C103.971 23.9545 103.88 24.2917 103.88 24.6705V30H102.181ZM110.783 30.1932C110.23 30.1932 109.73 30.0909 109.283 29.8864C108.836 29.678 108.482 29.3769 108.221 28.983C107.963 28.589 107.835 28.1061 107.835 27.5341C107.835 27.0417 107.929 26.6364 108.119 26.3182C108.308 26 108.564 25.7481 108.886 25.5625C109.208 25.3769 109.567 25.2367 109.965 25.142C110.363 25.0473 110.768 24.9754 111.181 24.9261C111.704 24.8655 112.128 24.8163 112.454 24.7784C112.78 24.7367 113.016 24.6705 113.164 24.5795C113.312 24.4886 113.386 24.3409 113.386 24.1364V24.0966C113.386 23.6004 113.246 23.2159 112.965 22.9432C112.689 22.6705 112.276 22.5341 111.727 22.5341C111.155 22.5341 110.704 22.661 110.374 22.9148C110.049 23.1648 109.823 23.4432 109.698 23.75L108.102 23.3864C108.291 22.8561 108.567 22.428 108.931 22.1023C109.299 21.7727 109.721 21.5341 110.198 21.3864C110.675 21.2348 111.177 21.1591 111.704 21.1591C112.052 21.1591 112.422 21.2008 112.812 21.2841C113.206 21.3636 113.573 21.5114 113.914 21.7273C114.259 21.9432 114.541 22.2519 114.761 22.6534C114.98 23.0511 115.09 23.5682 115.09 24.2045V30H113.431V28.8068H113.363C113.253 29.0265 113.088 29.2424 112.869 29.4545C112.649 29.6667 112.367 29.8428 112.022 29.983C111.677 30.1231 111.264 30.1932 110.783 30.1932ZM111.153 28.8295C111.622 28.8295 112.024 28.7367 112.357 28.5511C112.694 28.3655 112.95 28.1231 113.124 27.8239C113.302 27.5208 113.391 27.197 113.391 26.8523V25.7273C113.331 25.7879 113.213 25.8447 113.039 25.8977C112.869 25.947 112.674 25.9905 112.454 26.0284C112.234 26.0625 112.02 26.0947 111.812 26.125C111.603 26.1515 111.429 26.1742 111.289 26.1932C110.96 26.2348 110.658 26.3049 110.386 26.4034C110.117 26.5019 109.901 26.6439 109.738 26.8295C109.579 27.0114 109.499 27.2538 109.499 27.5568C109.499 27.9773 109.655 28.2955 109.965 28.5114C110.276 28.7235 110.672 28.8295 111.153 28.8295ZM121.427 21.2727V22.6364H116.66V21.2727H121.427ZM117.938 19.1818H119.637V27.4375C119.637 27.767 119.686 28.0152 119.785 28.1818C119.883 28.3447 120.01 28.4564 120.165 28.517C120.325 28.5739 120.497 28.6023 120.683 28.6023C120.819 28.6023 120.938 28.5928 121.04 28.5739C121.143 28.5549 121.222 28.5398 121.279 28.5284L121.586 29.9318C121.487 29.9697 121.347 30.0076 121.165 30.0455C120.984 30.0871 120.756 30.1098 120.484 30.1136C120.037 30.1212 119.62 30.0417 119.234 29.875C118.847 29.7083 118.535 29.4508 118.296 29.1023C118.058 28.7538 117.938 28.3163 117.938 27.7898V19.1818ZM126.888 30.1761C126.07 30.1761 125.356 29.9886 124.746 29.6136C124.137 29.2386 123.663 28.714 123.326 28.0398C122.989 27.3655 122.82 26.5777 122.82 25.6761C122.82 24.7708 122.989 23.9792 123.326 23.3011C123.663 22.6231 124.137 22.0966 124.746 21.7216C125.356 21.3466 126.07 21.1591 126.888 21.1591C127.707 21.1591 128.421 21.3466 129.031 21.7216C129.64 22.0966 130.114 22.6231 130.451 23.3011C130.788 23.9792 130.957 24.7708 130.957 25.6761C130.957 26.5777 130.788 27.3655 130.451 28.0398C130.114 28.714 129.64 29.2386 129.031 29.6136C128.421 29.9886 127.707 30.1761 126.888 30.1761ZM126.894 28.75C127.424 28.75 127.864 28.6098 128.212 28.3295C128.561 28.0492 128.818 27.6761 128.985 27.2102C129.156 26.7443 129.241 26.2311 129.241 25.6705C129.241 25.1136 129.156 24.6023 128.985 24.1364C128.818 23.6667 128.561 23.2898 128.212 23.0057C127.864 22.7216 127.424 22.5795 126.894 22.5795C126.36 22.5795 125.917 22.7216 125.565 23.0057C125.216 23.2898 124.957 23.6667 124.786 24.1364C124.62 24.6023 124.536 25.1136 124.536 25.6705C124.536 26.2311 124.62 26.7443 124.786 27.2102C124.957 27.6761 125.216 28.0492 125.565 28.3295C125.917 28.6098 126.36 28.75 126.894 28.75ZM132.853 30V21.2727H134.495V22.6591H134.586C134.745 22.1894 135.025 21.8201 135.427 21.5511C135.832 21.2784 136.29 21.142 136.802 21.142C136.908 21.142 137.033 21.1458 137.177 21.1534C137.325 21.161 137.44 21.1705 137.523 21.1818V22.8068C137.455 22.7879 137.334 22.767 137.16 22.7443C136.986 22.7178 136.811 22.7045 136.637 22.7045C136.236 22.7045 135.878 22.7898 135.563 22.9602C135.253 23.1269 135.006 23.3598 134.825 23.6591C134.643 23.9545 134.552 24.2917 134.552 24.6705V30H132.853Z" fill="#101828"/>
</g>
</svg>
