<svg width="110" height="48" viewBox="0 0 110 48" fill="none" xmlns="http://www.w3.org/2000/svg">
<g style="mix-blend-mode:multiply">
<rect width="110" height="48" rx="24" fill="#F2F4F7"/>
<path d="M33.625 26.5C33.625 29.952 31.452 32.125 28 32.125C24.548 32.125 22.375 29.952 22.375 26.5C22.375 22.7957 26.4074 17.7949 27.6441 16.3484C27.6881 16.297 27.7428 16.2558 27.8042 16.2275C27.8657 16.1992 27.9325 16.1846 28.0002 16.1846C28.0679 16.1846 28.1347 16.1992 28.1962 16.2275C28.2576 16.2558 28.3122 16.297 28.3562 16.3484C29.5926 17.7949 33.625 22.7957 33.625 26.5Z" stroke="#101828" stroke-width="1.25" stroke-miterlimit="10"/>
<path d="M31.4375 26.8125C31.4375 27.5584 31.1412 28.2738 30.6137 28.8012C30.0863 29.3287 29.3709 29.625 28.625 29.625" stroke="#101828" stroke-width="1.25" stroke-linecap="round" stroke-linejoin="round"/>
<path d="M49.9162 30L46.6889 18.3636H48.5355L50.8026 27.375H50.9105L53.2685 18.3636H55.098L57.456 27.3807H57.5639L59.8253 18.3636H61.6776L58.4446 30H56.6776L54.2287 21.2841H54.1378L51.6889 30H49.9162ZM64.8224 30.1932C64.2694 30.1932 63.7694 30.0909 63.3224 29.8864C62.8755 29.678 62.5213 29.3769 62.2599 28.983C62.0024 28.589 61.8736 28.1061 61.8736 27.5341C61.8736 27.0417 61.9683 26.6364 62.1577 26.3182C62.3471 26 62.6027 25.7481 62.9247 25.5625C63.2467 25.3769 63.6065 25.2367 64.0043 25.142C64.402 25.0473 64.8073 24.9754 65.2202 24.9261C65.7429 24.8655 66.1671 24.8163 66.4929 24.7784C66.8187 24.7367 67.0554 24.6705 67.2031 24.5795C67.3509 24.4886 67.4247 24.3409 67.4247 24.1364V24.0966C67.4247 23.6004 67.2846 23.2159 67.0043 22.9432C66.7277 22.6705 66.3149 22.5341 65.7656 22.5341C65.1937 22.5341 64.7429 22.661 64.4134 22.9148C64.0876 23.1648 63.8622 23.4432 63.7372 23.75L62.1406 23.3864C62.33 22.8561 62.6065 22.428 62.9702 22.1023C63.3376 21.7727 63.7599 21.5341 64.2372 21.3864C64.7145 21.2348 65.2164 21.1591 65.7429 21.1591C66.0914 21.1591 66.4607 21.2008 66.8509 21.2841C67.2448 21.3636 67.6122 21.5114 67.9531 21.7273C68.2978 21.9432 68.58 22.2519 68.7997 22.6534C69.0194 23.0511 69.1293 23.5682 69.1293 24.2045V30H67.4702V28.8068H67.402C67.2921 29.0265 67.1274 29.2424 66.9077 29.4545C66.688 29.6667 66.4058 29.8428 66.0611 29.983C65.7164 30.1231 65.3035 30.1932 64.8224 30.1932ZM65.1918 28.8295C65.6615 28.8295 66.063 28.7367 66.3963 28.5511C66.7334 28.3655 66.9891 28.1231 67.1634 27.8239C67.3414 27.5208 67.4304 27.197 67.4304 26.8523V25.7273C67.3698 25.7879 67.2524 25.8447 67.0781 25.8977C66.9077 25.947 66.7126 25.9905 66.4929 26.0284C66.2732 26.0625 66.0592 26.0947 65.8509 26.125C65.6425 26.1515 65.4683 26.1742 65.3281 26.1932C64.9986 26.2348 64.6974 26.3049 64.4247 26.4034C64.1558 26.5019 63.9399 26.6439 63.777 26.8295C63.6179 27.0114 63.5384 27.2538 63.5384 27.5568C63.5384 27.9773 63.6937 28.2955 64.0043 28.5114C64.3149 28.7235 64.7107 28.8295 65.1918 28.8295ZM75.4659 21.2727V22.6364H70.6989V21.2727H75.4659ZM71.9773 19.1818H73.6761V27.4375C73.6761 27.767 73.7254 28.0152 73.8239 28.1818C73.9223 28.3447 74.0492 28.4564 74.2045 28.517C74.3636 28.5739 74.536 28.6023 74.7216 28.6023C74.858 28.6023 74.9773 28.5928 75.0795 28.5739C75.1818 28.5549 75.2614 28.5398 75.3182 28.5284L75.625 29.9318C75.5265 29.9697 75.3864 30.0076 75.2045 30.0455C75.0227 30.0871 74.7955 30.1098 74.5227 30.1136C74.0758 30.1212 73.6591 30.0417 73.2727 29.875C72.8864 29.7083 72.5739 29.4508 72.3352 29.1023C72.0966 28.7538 71.9773 28.3163 71.9773 27.7898V19.1818ZM81.0128 30.1761C80.1529 30.1761 79.4124 29.9924 78.7912 29.625C78.1738 29.2538 77.6965 28.733 77.3594 28.0625C77.026 27.3883 76.8594 26.5985 76.8594 25.6932C76.8594 24.7992 77.026 24.0114 77.3594 23.3295C77.6965 22.6477 78.1662 22.1155 78.7685 21.733C79.3745 21.3504 80.0829 21.1591 80.8935 21.1591C81.3859 21.1591 81.8632 21.2405 82.3253 21.4034C82.7874 21.5663 83.2022 21.822 83.5696 22.1705C83.937 22.5189 84.2268 22.9716 84.4389 23.5284C84.651 24.0814 84.7571 24.7538 84.7571 25.5455V26.1477H77.8196V24.875H83.0923C83.0923 24.428 83.0014 24.0322 82.8196 23.6875C82.6378 23.339 82.3821 23.0644 82.0526 22.8636C81.7268 22.6629 81.3442 22.5625 80.9048 22.5625C80.4276 22.5625 80.0109 22.6799 79.6548 22.9148C79.3026 23.1458 79.0298 23.4489 78.8366 23.8239C78.6473 24.1951 78.5526 24.5985 78.5526 25.0341V26.0284C78.5526 26.6117 78.6548 27.108 78.8594 27.517C79.0677 27.9261 79.3575 28.2386 79.7287 28.4545C80.0999 28.6667 80.5336 28.7727 81.0298 28.7727C81.3518 28.7727 81.6454 28.7273 81.9105 28.6364C82.1757 28.5417 82.4048 28.4015 82.598 28.2159C82.7912 28.0303 82.9389 27.8011 83.0412 27.5284L84.6491 27.8182C84.5204 28.2917 84.2893 28.7064 83.956 29.0625C83.6264 29.4148 83.2116 29.6894 82.7116 29.8864C82.2154 30.0795 81.6491 30.1761 81.0128 30.1761ZM86.642 30V21.2727H88.2841V22.6591H88.375C88.5341 22.1894 88.8144 21.8201 89.2159 21.5511C89.6212 21.2784 90.0795 21.142 90.5909 21.142C90.697 21.142 90.822 21.1458 90.9659 21.1534C91.1136 21.161 91.2292 21.1705 91.3125 21.1818V22.8068C91.2443 22.7879 91.1231 22.767 90.9489 22.7443C90.7746 22.7178 90.6004 22.7045 90.4261 22.7045C90.0246 22.7045 89.6667 22.7898 89.3523 22.9602C89.0417 23.1269 88.7955 23.3598 88.6136 23.6591C88.4318 23.9545 88.3409 24.2917 88.3409 24.6705V30H86.642Z" fill="#101828"/>
</g>
</svg>
